<svg xmlns="http://www.w3.org/2000/svg" version="1.1" xmlns:xlink="http://www.w3.org/1999/xlink" xmlns:svgjs="http://svgjs.com/svgjs" width="1920" height="1080" preserveAspectRatio="none" viewBox="0 0 1920 1080"><g mask="url(&quot;#SvgjsMask1009&quot;)" fill="none"><path d="M -782.3151051717941,753 C -654.32,669.6 -398.32,299.2 -142.31510517179416,336 C 113.68,372.8 241.68,944.8 497.68489482820587,937 C 753.68,929.2 881.68,348.2 1137.6848948282059,297 C 1393.68,245.8 1621.22,677.8 1777.6848948282059,681 C 1934.15,684.2 1891.54,386.6 1920,313" stroke="rgba(87, 114, 255, 1)" stroke-width="2"></path><path d="M -833.3280261569412,394 C -705.33,425.4 -449.33,564.6 -193.3280261569412,551 C 62.67,537.4 190.67,244.6 446.6719738430588,326 C 702.67,407.4 830.67,932.6 1086.6719738430588,958 C 1342.67,983.4 1560.01,456.2 1726.6719738430588,453 C 1893.34,449.8 1881.33,844.2 1920,942" stroke="rgba(87, 114, 255, 1)" stroke-width="2"></path><path d="M -581.1848461737786,961 C -453.18,800.8 -197.18,189.6 58.815153826221405,160 C 314.82,130.4 442.82,774 698.8151538262214,813 C 954.82,852 1082.82,406.4 1338.8151538262214,355 C 1594.82,303.6 1862.58,555.8 1978.8151538262214,556 C 2095.05,556.2 1931.76,396 1920,356" stroke="rgba(13, 43, 75, 1)" stroke-width="2"></path><path d="M -981.6972666216781,259 C -853.7,393.6 -597.7,898.2 -341.69726662167807,932 C -85.7,965.8 42.3,480.2 298.30273337832193,428 C 554.3,375.8 682.3,653.2 938.3027333783219,671 C 1194.3,688.8 1381.96,492.4 1578.302733378322,517 C 1774.64,541.6 1851.66,738.6 1920,794" stroke="rgba(87, 114, 255, 1)" stroke-width="2"></path><path d="M -393.5495916517077,753 C -265.55,670 -9.55,341.8 246.4504083482923,338 C 502.45,334.2 630.45,756.8 886.4504083482923,734 C 1142.45,711.2 1270.45,254.8 1526.4504083482923,224 C 1782.45,193.2 2087.74,583.8 2166.4504083482925,580 C 2245.16,576.2 1969.29,280 1920,205" stroke="rgba(13, 43, 75, 1)" stroke-width="2"></path></g><defs><mask id="SvgjsMask1009"><rect width="1920" height="1080" fill="#ffffff"></rect></mask></defs></svg>