<svg xmlns="http://www.w3.org/2000/svg" version="1.1" xmlns:xlink="http://www.w3.org/1999/xlink" xmlns:svgjs="http://svgjs.com/svgjs" width="1920" height="1080" preserveAspectRatio="none" viewBox="0 0 1920 1080"><g mask="url(&quot;#SvgjsMask1112&quot;)" fill="none"><path d="M -200.73628293632623,116 C -72.74,210.8 183.26,544.4 439.26371706367377,590 C 695.26,635.6 823.26,268.6 1079.2637170636738,344 C 1335.26,419.4 1463.26,1004.2 1719.2637170636738,967 C 1975.26,929.8 2319.12,224.2 2359.2637170636735,158 C 2399.41,91.8 2007.85,540.4 1920,636" stroke="rgba(87, 114, 255, 1)" stroke-width="2"></path><path d="M -180.96022456602356,161 C -52.96,285 203.04,755.2 459.03977543397644,781 C 715.04,806.8 843.04,254.8 1099.0397754339765,290 C 1355.04,325.2 1483.04,920.6 1739.0397754339765,957 C 1995.04,993.4 2342.85,535.4 2379.0397754339765,472 C 2415.23,408.6 2011.81,606.4 1920,640" stroke="rgba(87, 114, 255, 1)" stroke-width="2"></path><path d="M -878.1096377365609,595 C -750.11,552 -494.11,331.6 -238.10963773656084,380 C 17.89,428.4 145.89,822.2 401.89036226343916,837 C 657.89,851.8 785.89,449.2 1041.890362263439,454 C 1297.89,458.8 1506.27,905 1681.890362263439,861 C 1857.51,817 1872.38,359.4 1920,234" stroke="rgba(87, 114, 255, 1)" stroke-width="2"></path><path d="M -314.70680114778077,778 C -186.71,688 69.29,345.4 325.29319885221923,328 C 581.29,310.6 709.29,675 965.2931988522192,691 C 1221.29,707 1349.29,399.4 1605.2931988522191,408 C 1861.29,416.6 2182.35,737 2245.293198852219,734 C 2308.23,731 1985.06,461.2 1920,393" stroke="rgba(87, 114, 255, 1)" stroke-width="2"></path><path d="M -682.539219163633,592 C -554.54,497.4 -298.54,54.2 -42.539219163632964,119 C 213.46,183.8 341.46,861.4 597.460780836367,916 C 853.46,970.6 981.46,422.8 1237.4607808363671,392 C 1493.46,361.2 1740.95,739.2 1877.4607808363671,762 C 2013.97,784.8 1911.49,557.2 1920,506" stroke="rgba(87, 114, 255, 1)" stroke-width="2"></path></g><defs><mask id="SvgjsMask1112"><rect width="1920" height="1080" fill="#ffffff"></rect></mask></defs></svg>