<svg xmlns="http://www.w3.org/2000/svg" version="1.1" xmlns:xlink="http://www.w3.org/1999/xlink" xmlns:svgjs="http://svgjs.com/svgjs" width="1920" height="1080" preserveAspectRatio="none" viewBox="0 0 1920 1080"><g mask="url(&quot;#SvgjsMask1036&quot;)" fill="none"><rect width="1920" height="1080" x="0" y="0" fill="rgba(163, 195, 255, 1)"></rect><path d="M2048 1080L0 1080 L0 709.22Q-14.85 598.37, 96 583.52Q158.89 486.41, 256 549.31Q313.88 511.18, 352 569.06Q441.42 498.48, 512 587.91Q611.55 591.46, 608 691.02Q706.98 630, 768 728.97Q773.76 638.74, 864 644.5Q902.99 523.49, 1024 562.47Q1082.76 525.23, 1120 583.99Q1211.05 579.04, 1216 670.08Q1268.22 562.31, 1376 614.53Q1492.6 571.13, 1536 687.72Q1578.77 634.49, 1632 677.26Q1645.95 595.21, 1728 609.17Q1793.31 514.48, 1888 579.79Q2033.71 565.5, 2048 711.21z" fill="rgba(255, 255, 255, 1)"></path><path d="M1984 1080L0 1080 L0 777.58Q82.18 699.76, 160 781.94Q185.84 711.78, 256 737.62Q320.38 642, 416 706.38Q558.96 689.34, 576 832.29Q662.98 759.27, 736 846.25Q748.77 699.02, 896 711.8Q967.61 623.4, 1056 695.01Q1158.11 637.12, 1216 739.23Q1352.01 715.25, 1376 851.26Q1440.62 755.88, 1536 820.5Q1540.41 728.91, 1632 733.33Q1674.21 679.54, 1728 721.74Q1758.75 656.49, 1824 687.24Q1943.52 646.76, 1984 766.28z" fill="#25467d"></path><path d="M1952 1080L0 1080 L0 831.71Q88 823.71, 96 911.71Q163.35 883.06, 192 950.4Q229.58 891.98, 288 929.56Q352.3 833.86, 448 898.16Q459.82 813.98, 544 825.81Q618.96 740.76, 704 815.72Q860.54 812.26, 864 968.81Q884.73 829.53, 1024 850.26Q1060.84 791.1, 1120 827.94Q1193.29 741.24, 1280 814.53Q1430.69 805.22, 1440 955.92Q1474.69 894.61, 1536 929.3Q1578.16 811.46, 1696 853.63Q1808.14 805.77, 1856 917.91Q1928.8 894.71, 1952 967.52z" fill="rgba(87, 114, 255, 1)"></path><path d="M2016 1080L0 1080 L0 1014.21Q106.3 960.51, 160 1066.82Q167.62 978.43, 256 986.05Q343.24 913.29, 416 1000.53Q473.76 962.29, 512 1020.06Q622.15 970.21, 672 1080.36Q698.09 1010.45, 768 1036.54Q842.35 950.89, 928 1025.24Q1049.69 986.93, 1088 1108.62Q1146.16 1070.78, 1184 1128.93Q1211.38 1060.31, 1280 1087.69Q1313.69 1025.38, 1376 1059.07Q1439.69 962.76, 1536 1026.46Q1625.72 956.18, 1696 1045.89Q1816.81 1006.7, 1856 1127.51Q1873.06 984.57, 2016 1001.62z" fill="rgba(163, 195, 255, 1)"></path></g><defs><mask id="SvgjsMask1036"><rect width="1920" height="1080" fill="#ffffff"></rect></mask></defs></svg>